<svg width="69" height="62" viewBox="0 0 69 62" fill="none" xmlns="http://www.w3.org/2000/svg">
<path d="M8.60768 38.75V42.625H18.4764L4.30383 55.3854L7.34666 58.125L21.5192 45.3646V54.25H25.8231V38.75H8.60768Z" fill="white"/>
<path d="M47.3424 31H51.6463V19.375H62.4059V15.5H51.6463V7.75H64.5578V3.875H47.3424V31Z" fill="white"/>
<path d="M34.4308 3.875H25.8231V31H34.4308C36.7137 31 38.9031 30.1835 40.5174 28.7301C42.1316 27.2767 43.0385 25.3054 43.0385 23.25V11.625C43.0385 9.56957 42.1316 7.59833 40.5174 6.14492C38.9031 4.69152 36.7137 3.875 34.4308 3.875ZM38.7347 23.25C38.7347 24.2777 38.2812 25.2633 37.4741 25.99C36.667 26.7167 35.5723 27.125 34.4308 27.125H30.127V7.75H34.4308C35.5723 7.75 36.667 8.15826 37.4741 8.88496C38.2812 9.61166 38.7347 10.5973 38.7347 11.625V23.25Z" fill="white"/>
<path d="M17.2154 3.875H4.30383V31H8.60768V21.3125H17.2154C18.3568 21.3125 19.4515 20.9042 20.2587 20.1775C21.0658 19.4508 21.5192 18.4652 21.5192 17.4375V7.75C21.5192 6.72229 21.0658 5.73666 20.2587 5.00996C19.4515 4.28326 18.3568 3.875 17.2154 3.875ZM17.2154 17.4375H8.60768V7.75H17.2154V17.4375Z" fill="white"/>
</svg>
