<svg width="19" height="19" viewBox="0 0 19 19" fill="none" xmlns="http://www.w3.org/2000/svg">
<path d="M9.16667 0.5C4.11217 0.5 0 4.61217 0 9.66667C0 14.7212 4.11217 18.8333 9.16667 18.8333C14.2212 18.8333 18.3333 14.7212 18.3333 9.66667C18.3333 4.61217 14.2212 0.5 9.16667 0.5ZM9.16667 17C5.12325 17 1.83333 13.7101 1.83333 9.66667C1.83333 5.62325 5.12325 2.33333 9.16667 2.33333C13.2101 2.33333 16.5 5.62325 16.5 9.66667C16.5 13.7101 13.2101 17 9.16667 17Z" fill="#222222"/>
<path d="M10.0833 5.0835H8.25V10.0463L11.2686 13.0649L12.5647 11.7687L10.0833 9.28733V5.0835Z" fill="#222222"/>
</svg>
