<svg width="17" height="17" viewBox="0 0 17 17" fill="none" xmlns="http://www.w3.org/2000/svg">
<path fill-rule="evenodd" clip-rule="evenodd" d="M16.2004 0.302968C16.2965 0.398763 16.3727 0.512562 16.4246 0.637849C16.4766 0.763136 16.5034 0.897448 16.5034 1.03309C16.5034 1.16874 16.4766 1.30305 16.4246 1.42834C16.3727 1.55362 16.2965 1.66742 16.2004 1.76322L1.76292 16.2007C1.56928 16.3944 1.30665 16.5031 1.0328 16.5031C0.758947 16.5031 0.496313 16.3944 0.302672 16.2007C0.10903 16.0071 0.000244143 15.7444 0.000244141 15.4706C0.000244139 15.1967 0.10903 14.9341 0.302672 14.7405L14.7402 0.302968C14.836 0.206932 14.9498 0.130737 15.0751 0.0787484C15.2003 0.0267601 15.3346 0 15.4703 0C15.6059 0 15.7403 0.0267601 15.8655 0.0787484C15.9908 0.130737 16.1046 0.206932 16.2004 0.302968Z" fill="white"/>
<path fill-rule="evenodd" clip-rule="evenodd" d="M0.302968 0.302968C0.206932 0.398763 0.130737 0.512562 0.0787484 0.637849C0.0267601 0.763136 0 0.897448 0 1.03309C0 1.16874 0.0267601 1.30305 0.0787484 1.42834C0.130737 1.55362 0.206932 1.66742 0.302968 1.76322L14.7405 16.2007C14.9341 16.3944 15.1967 16.5031 15.4706 16.5031C15.7444 16.5031 16.0071 16.3944 16.2007 16.2007C16.3944 16.0071 16.5031 15.7444 16.5031 15.4706C16.5031 15.1967 16.3944 14.9341 16.2007 14.7405L1.76322 0.302968C1.66742 0.206932 1.55362 0.130737 1.42834 0.0787484C1.30305 0.0267601 1.16874 0 1.03309 0C0.897448 0 0.763136 0.0267601 0.637849 0.0787484C0.512562 0.130737 0.398762 0.206932 0.302968 0.302968Z" fill="white"/>
</svg>
