<svg width="17" height="33" viewBox="0 0 17 33" fill="none" xmlns="http://www.w3.org/2000/svg">
<path d="M11.0114 2.12903L11.2045 2.1623H13.8769V5.35585H11.2045C11.0543 5.35585 10.9094 5.36694 10.7699 5.38911C10.6304 5.41129 10.5177 5.4501 10.4318 5.50554C10.3459 5.56099 10.2655 5.62198 10.1903 5.68851C10.1152 5.75504 10.0508 5.82157 9.99715 5.8881C9.94348 5.95464 9.90056 6.02671 9.86836 6.10433C9.83616 6.18196 9.8147 6.24849 9.80396 6.30393L9.77177 6.47026L9.75567 6.58669V11.7097H14.9716L14.231 14.9032H9.75567V30.871H6.66476V14.9032H2.54355V11.7097H6.66476V6.75302C6.66476 6.06552 6.75062 5.4501 6.92234 4.90675C7.09405 4.36341 7.3248 3.93649 7.61457 3.62601C7.90434 3.31552 8.19948 3.0494 8.49999 2.82762C8.80049 2.60585 9.13319 2.4506 9.49809 2.3619C9.86299 2.27319 10.1528 2.2122 10.3674 2.17893C10.5821 2.14567 10.7967 2.12903 11.0114 2.12903ZM11.0114 0C9.68054 0 8.48925 0.332661 7.43749 0.997984C5.5486 2.17339 4.60415 4.09173 4.60415 6.75302V9.58064H2.54355C1.98547 9.58064 1.50251 9.79133 1.09468 10.2127C0.686855 10.6341 0.482941 11.1331 0.482941 11.7097V14.9032C0.482941 15.4798 0.686855 15.9788 1.09468 16.4002C1.50251 16.8216 1.98547 17.0323 2.54355 17.0323H4.60415V30.8377C4.60415 31.4365 4.8027 31.941 5.1998 32.3513C5.59689 32.7616 6.08521 32.9667 6.66476 32.9667H9.75567C10.3137 32.9667 10.7967 32.7616 11.2045 32.3513C11.6124 31.941 11.8163 31.4365 11.8163 30.8377V17.0323H14.231C14.7033 17.0323 15.1218 16.8881 15.4867 16.5998C15.8516 16.3115 16.0985 15.9456 16.2273 15.502L16.9356 12.3085C17.1288 11.621 17.0215 10.9945 16.6136 10.4289C16.2058 9.86341 15.6584 9.58064 14.9716 9.58064H11.8163V7.48488H13.8769C14.435 7.48488 14.9179 7.27419 15.3257 6.85282C15.7336 6.43145 15.9375 5.93246 15.9375 5.35585V2.1623C15.9375 1.56351 15.7389 1.05897 15.3418 0.64869C14.9447 0.238407 14.4672 0.0332661 13.9091 0.0332661H11.2689C11.1831 0.0110887 11.0972 0 11.0114 0Z" fill="black"/>
</svg>
