<svg width="27" height="28" viewBox="0 0 27 28" fill="none" xmlns="http://www.w3.org/2000/svg">
<path d="M13.573 6.63765C14.5703 6.63765 15.5068 6.82 16.3824 7.18471C17.2581 7.54941 18.0243 8.06 18.6811 8.71647C19.3378 9.37294 19.8486 10.1388 20.2135 11.0141C20.5784 11.8894 20.7608 12.8255 20.7608 13.8224C20.7608 14.8192 20.5784 15.7431 20.2135 16.5941C19.8486 17.4451 19.3378 18.211 18.6811 18.8918C18.0243 19.5726 17.2581 20.0831 16.3824 20.4235C15.5068 20.7639 14.5703 20.9584 13.573 21.0071C12.5757 21.0557 11.6392 20.8612 10.7635 20.4235C9.88784 19.9859 9.13378 19.4753 8.50135 18.8918C7.86892 18.3082 7.35811 17.5424 6.96892 16.5941C6.57973 15.6459 6.38514 14.722 6.38514 13.8224C6.38514 12.9227 6.57973 11.9867 6.96892 11.0141C7.35811 10.0416 7.86892 9.27569 8.50135 8.71647C9.13378 8.15726 9.88784 7.64667 10.7635 7.18471C11.6392 6.72275 12.5757 6.54039 13.573 6.63765ZM13.573 18.4541C14.2054 18.4541 14.8014 18.3326 15.3608 18.0894C15.9203 17.8463 16.4189 17.518 16.8568 17.1047C17.2946 16.6914 17.623 16.1929 17.8419 15.6094C18.0608 15.0259 18.1824 14.4302 18.2068 13.8224C18.2311 13.2145 18.1095 12.6067 17.8419 11.9988C17.5743 11.391 17.2459 10.8926 16.8568 10.5035C16.4676 10.1145 15.9689 9.78628 15.3608 9.51883C14.7527 9.25138 14.1568 9.12981 13.573 9.15412C12.9892 9.17843 12.3932 9.3 11.7851 9.51883C11.177 9.73765 10.6784 10.0659 10.2892 10.5035C9.9 10.9412 9.57162 11.4396 9.30405 11.9988C9.03649 12.558 8.91487 13.1659 8.93919 13.8224C8.96351 14.4788 9.08514 15.0745 9.30405 15.6094C9.52297 16.1443 9.85135 16.6427 10.2892 17.1047C10.727 17.5667 11.2257 17.8949 11.7851 18.0894C12.3446 18.2839 12.9405 18.4055 13.573 18.4541ZM27 7.00236C27.2189 11.549 27.2189 16.0957 27 20.6424C26.9514 21.5177 26.7446 22.3443 26.3797 23.1224C26.0149 23.9004 25.5405 24.5812 24.9568 25.1647C24.373 25.7482 23.6797 26.2345 22.877 26.6235C22.0743 27.0126 21.2473 27.2192 20.3959 27.2435C19.2527 27.2922 18.1216 27.3286 17.0027 27.3529C15.8838 27.3773 14.7405 27.3894 13.573 27.3894C12.4054 27.3894 11.2743 27.3773 10.1797 27.3529C9.08514 27.3286 7.94189 27.2922 6.75 27.2435C5.87432 27.1949 5.0473 26.9882 4.26892 26.6235C3.49054 26.2588 2.80946 25.7726 2.22568 25.1647C1.64189 24.5569 1.15541 23.8761 0.766216 23.1224C0.377027 22.3686 0.17027 21.542 0.145946 20.6424C-0.0486487 16.0957 -0.0486487 11.549 0.145946 7.00236C0.194595 6.12706 0.401351 5.30039 0.766216 4.52236C1.13108 3.74432 1.61757 3.05137 2.22568 2.44353C2.83378 1.83569 3.51486 1.36157 4.26892 1.02118C5.02297 0.680786 5.85 0.474119 6.75 0.401178C11.2986 0.182355 15.8473 0.182355 20.3959 0.401178C21.2716 0.449806 22.0986 0.656472 22.877 1.02118C23.6554 1.38588 24.3486 1.86 24.9568 2.44353C25.5649 3.02706 26.0392 3.72 26.3797 4.52236C26.7203 5.32471 26.927 6.15137 27 7.00236ZM24.4459 20.4965C24.6649 16.0471 24.6649 11.5855 24.4459 7.11177C24.4216 6.57687 24.2878 6.06628 24.0446 5.58C23.8014 5.09373 23.4973 4.65608 23.1324 4.26706C22.7676 3.87804 22.3297 3.56196 21.8189 3.31883C21.3081 3.07569 20.7973 2.94196 20.2865 2.91765C19.1676 2.86902 18.0486 2.83255 16.9297 2.80824C15.8108 2.78392 14.6919 2.77177 13.573 2.77177C12.4541 2.77177 11.3351 2.78392 10.2162 2.80824C9.0973 2.83255 7.97838 2.86902 6.85946 2.91765C6.32432 2.94196 5.81351 3.07569 5.32703 3.31883C4.84054 3.56196 4.41487 3.87804 4.05 4.26706C3.68514 4.65608 3.36892 5.09373 3.10135 5.58C2.83378 6.06628 2.7 6.57687 2.7 7.11177C2.48108 11.5855 2.48108 16.0592 2.7 20.5329C2.72432 21.0678 2.85811 21.5784 3.10135 22.0647C3.34459 22.551 3.66081 22.9765 4.05 23.3412C4.43919 23.7059 4.86486 24.022 5.32703 24.2894C5.78919 24.5569 6.3 24.6906 6.85946 24.6906C11.3351 24.9094 15.8108 24.9094 20.2865 24.6906C20.8216 24.6663 21.3324 24.5326 21.8189 24.2894C22.3054 24.0463 22.7432 23.7302 23.1324 23.3412C23.5216 22.9522 23.8257 22.5145 24.0446 22.0282C24.2635 21.542 24.3973 21.0314 24.4459 20.4965ZM20.7608 5.03294C21.1987 5.03294 21.5757 5.19098 21.8919 5.50706C22.2081 5.82314 22.3662 6.2 22.3662 6.63765C22.3662 7.0753 22.2081 7.45216 21.8919 7.76824C21.5757 8.08432 21.1987 8.24236 20.7608 8.24236C20.323 8.24236 19.9459 8.08432 19.6297 7.76824C19.3135 7.45216 19.1554 7.0753 19.1554 6.63765C19.1554 6.2 19.3135 5.82314 19.6297 5.50706C19.9459 5.19098 20.323 5.03294 20.7608 5.03294Z" fill="black"/>
</svg>
