<svg width="18" height="23" viewBox="0 0 18 23" fill="none" xmlns="http://www.w3.org/2000/svg">
<path d="M8.59375 13.0625C7.82117 13.0625 7.06594 12.8334 6.42356 12.4042C5.78118 11.975 5.2805 11.3649 4.98485 10.6511C4.68919 9.93734 4.61184 9.15192 4.76256 8.39418C4.91328 7.63644 5.28532 6.94042 5.83162 6.39412C6.37792 5.84782 7.07394 5.47578 7.83168 5.32506C8.58942 5.17434 9.37484 5.25169 10.0886 5.54735C10.8024 5.843 11.4125 6.34368 11.8417 6.98606C12.2709 7.62844 12.5 8.38367 12.5 9.15625C12.4988 10.1919 12.0868 11.1847 11.3545 11.917C10.6222 12.6493 9.62937 13.0613 8.59375 13.0625ZM8.59375 6.8125C8.1302 6.8125 7.67706 6.94996 7.29163 7.2075C6.90621 7.46503 6.6058 7.83107 6.42841 8.25934C6.25102 8.6876 6.2046 9.15885 6.29504 9.6135C6.38547 10.0681 6.60869 10.4858 6.93647 10.8135C7.26425 11.1413 7.68187 11.3645 8.13651 11.455C8.59115 11.5454 9.0624 11.499 9.49067 11.3216C9.91893 11.1442 10.285 10.8438 10.5425 10.4584C10.8 10.0729 10.9375 9.6198 10.9375 9.15625C10.9369 8.53484 10.6898 7.93906 10.2503 7.49966C9.81095 7.06025 9.21516 6.81312 8.59375 6.8125Z" fill="#222222"/>
<path d="M8.59376 22.4375L2.00313 14.6648C1.91156 14.5481 1.82093 14.4307 1.73126 14.3125C0.605463 12.8295 -0.00271968 11.0181 9.14288e-06 9.15625C9.14288e-06 6.87705 0.90542 4.69119 2.51706 3.07955C4.1287 1.46791 6.31455 0.5625 8.59376 0.5625C10.873 0.5625 13.0588 1.46791 14.6705 3.07955C16.2821 4.69119 17.1875 6.87705 17.1875 9.15625C17.1902 11.0173 16.5823 12.8278 15.457 14.3102L15.4563 14.3125C15.4563 14.3125 15.2219 14.6203 15.1867 14.6617L8.59376 22.4375ZM2.97813 13.3711C2.9797 13.3711 3.16095 13.6117 3.20235 13.6633L8.59376 20.0219L13.9922 13.6547C14.0266 13.6117 14.2094 13.3695 14.2102 13.3688C15.1298 12.1571 15.6268 10.6774 15.625 9.15625C15.625 7.29145 14.8842 5.50302 13.5656 4.18441C12.247 2.86579 10.4586 2.125 8.59376 2.125C6.72896 2.125 4.94053 2.86579 3.62191 4.18441C2.3033 5.50302 1.56251 7.29145 1.56251 9.15625C1.56087 10.6783 2.05843 12.1589 2.97891 13.3711H2.97813Z" fill="#222222"/>
</svg>
