<svg width="25" height="21" viewBox="0 0 27 21" fill="none" xmlns="http://www.w3.org/2000/svg">
<path d="M22.5417 0.166748H4.45834C3.43063 0.166748 2.44501 0.575006 1.7183 1.30171C0.991601 2.02841 0.583344 3.01403 0.583344 4.04175V16.9584C0.583344 17.9861 0.991601 18.9717 1.7183 19.6985C2.44501 20.4252 3.43063 20.8334 4.45834 20.8334H22.5417C23.5694 20.8334 24.555 20.4252 25.2817 19.6985C26.0084 18.9717 26.4167 17.9861 26.4167 16.9584V4.04175C26.4167 3.01403 26.0084 2.02841 25.2817 1.30171C24.555 0.575006 23.5694 0.166748 22.5417 0.166748ZM21.6763 2.75008L13.5 8.8855L5.32376 2.75008H21.6763ZM22.5417 18.2501H4.45834C4.11577 18.2501 3.78723 18.114 3.545 17.8718C3.30276 17.6295 3.16668 17.301 3.16668 16.9584V4.36466L12.725 11.5334C12.9486 11.7011 13.2205 11.7917 13.5 11.7917C13.7795 11.7917 14.0514 11.7011 14.275 11.5334L23.8333 4.36466V16.9584C23.8333 17.301 23.6973 17.6295 23.455 17.8718C23.2128 18.114 22.8842 18.2501 22.5417 18.2501Z" fill="black"/>
</svg>
