<svg width="19" height="19" viewBox="0 0 19 19" fill="current" xmlns="http://www.w3.org/2000/svg">
<g clip-path="url(#clip0)">
<path d="M14.6 9V15.35H3.9V4.65H10.36H10.4221L10.4661 4.60607L11.4661 3.60607L11.7221 3.35H11.36H3.75C3.445 3.35 3.15249 3.47116 2.93683 3.68683C2.72116 3.90249 2.6 4.195 2.6 4.5V15.5C2.6 15.805 2.72116 16.0975 2.93683 16.3132C3.15249 16.5288 3.445 16.65 3.75 16.65H14.75C15.055 16.65 15.3475 16.5288 15.5632 16.3132C15.7788 16.0975 15.9 15.805 15.9 15.5V8V7.63787L15.6439 7.89393L14.6439 8.89393L14.6 8.93787V9Z" fill="black" stroke="black" stroke-width="0.3"/>
<path d="M17.5147 3.42L15.8297 1.735C15.755 1.66002 15.6661 1.60052 15.5683 1.55993C15.4705 1.51934 15.3656 1.49844 15.2597 1.49844C15.1538 1.49844 15.049 1.51934 14.9512 1.55993C14.8534 1.60052 14.7645 1.66002 14.6897 1.735L7.83473 8.63L7.27973 11.035C7.25609 11.1516 7.25858 11.272 7.28701 11.3875C7.31545 11.503 7.36913 11.6107 7.4442 11.703C7.51926 11.7953 7.61384 11.8698 7.72114 11.9211C7.82844 11.9725 7.94578 11.9994 8.06473 12C8.12622 12.0068 8.18825 12.0068 8.24973 12L10.6747 11.465L17.5147 4.56C17.5897 4.48522 17.6492 4.39638 17.6898 4.29857C17.7304 4.20076 17.7513 4.0959 17.7513 3.99C17.7513 3.8841 17.7304 3.77924 17.6898 3.68143C17.6492 3.58362 17.5897 3.49478 17.5147 3.42ZM10.1547 10.54L8.32473 10.945L8.74973 9.13L13.9097 3.935L15.3197 5.345L10.1547 10.54ZM15.8847 4.78L14.4747 3.37L15.2497 2.58L16.6697 4L15.8847 4.78Z" fill="black" stroke="black" stroke-width="0.5"/>
</g>
<defs>
<clipPath id="clip0">
<rect width="18" height="18" fill="white" transform="translate(0.75 0.5)"/>
</clipPath>
</defs>
</svg>
