<!-- Generated by IcoMoon.io
<svg version="1.1" xmlns="http://www.w3.org/2000/svg" width="68" height="68" viewBox="0 0 68 68">
<title>pause_circle_outline</title>
<path fill="white" stroke-width="1" d="M36.789 45.289v-22.578h5.711v22.578h-5.711zM34 56.711q9.297 0 16.004-6.707t6.707-16.004-6.707-16.004-16.004-6.707-16.004 6.707-6.707 16.004 6.707 16.004 16.004 6.707zM34 5.711q11.688 0 19.988 8.301t8.301 19.988-8.301 19.988-19.988 8.301-19.988-8.301-8.301-19.988 8.301-19.988 19.988-8.301zM25.5 45.289v-22.578h5.711v22.578h-5.711z"></path>
</svg> -->
<svg id="icon-pause" version="1.1" xmlns="http://www.w3.org/2000/svg" width="30" height="30"  viewBox="0 0 51 68">
<path d="M0 0h17v68h-17zM34 0h17v68h-17z" fill="white"></path>
</svg>