<svg width="23" height="23" viewBox="0 0 23 23" fill="none" xmlns="http://www.w3.org/2000/svg">
<path d="M10.1617 5.80253L6.77865 1.89753C6.38865 1.44753 5.67365 1.44953 5.22065 1.90353L2.43865 4.69053C1.61065 5.51953 1.37365 6.75053 1.85265 7.73753C4.71427 13.6625 9.4927 18.4476 15.4137 21.3175C16.3997 21.7965 17.6297 21.5595 18.4577 20.7305L21.2657 17.9175C21.7207 17.4625 21.7217 16.7435 21.2677 16.3535L17.3477 12.9885C16.9377 12.6365 16.3007 12.6825 15.8897 13.0945L14.5257 14.4605C14.4558 14.5337 14.3639 14.582 14.264 14.5979C14.1641 14.6138 14.0618 14.5964 13.9727 14.5485C11.7431 13.2646 9.89365 11.4128 8.61265 9.18153C8.56468 9.09228 8.54731 8.98976 8.56321 8.88969C8.5791 8.78961 8.62739 8.69752 8.70065 8.62753L10.0607 7.26653C10.4727 6.85253 10.5177 6.21253 10.1617 5.80153V5.80253Z" stroke="black" stroke-width="2" stroke-linecap="round" stroke-linejoin="round"/>
</svg>
