<svg width="68" height="68" viewBox="0 0 68 68" fill="none" xmlns="http://www.w3.org/2000/svg">
<path d="M46.4899 34.2481L46.4949 34.2398L26.9771 23.0007L26.9721 23.0091C26.8414 22.9272 26.6911 22.882 26.5369 22.8783C26.3022 22.8785 26.0772 22.9716 25.9114 23.1372C25.7455 23.3028 25.6523 23.5273 25.6523 23.7613C25.6523 23.7972 25.6682 23.8271 25.6724 23.8613H25.6523V46.3386H25.6724C25.7242 46.7768 26.0842 47.1217 26.5369 47.1217C26.6989 47.1217 26.8418 47.0667 26.9721 46.9909L26.9854 47.0134L46.5033 35.7752L46.4899 35.7527C46.7539 35.6002 46.9393 35.327 46.9393 35.0004C46.9393 34.6738 46.7539 34.4014 46.4899 34.2481Z" fill="white"/>
<rect x="1" y="1" width="66" height="66" rx="33" stroke="white" stroke-width="2"/>
</svg>
