<svg width="24" height="26" viewBox="0 0 24 26" fill="none" xmlns="http://www.w3.org/2000/svg">
<path d="M23.6057 23.1585L19.0739 18.3392C20.536 16.3524 21.3294 13.8989 21.3265 11.3731C21.3265 9.12374 20.7011 6.92486 19.5294 5.05456C18.3577 3.18426 16.6923 1.72654 14.7439 0.865733C12.7954 0.00492776 10.6514 -0.220298 8.58294 0.218536C6.51448 0.657371 4.61447 1.74056 3.12319 3.33112C1.63191 4.92168 0.616339 6.94817 0.204896 9.15434C-0.206547 11.3605 0.00462018 13.6473 0.811695 15.7254C1.61877 17.8036 2.9855 19.5798 4.73906 20.8295C6.49262 22.0792 8.55425 22.7463 10.6632 22.7463C13.0313 22.7494 15.3317 21.9032 17.1945 20.3437L21.713 25.1773C21.8369 25.3105 21.9843 25.4163 22.1468 25.4884C22.3092 25.5606 22.4834 25.5978 22.6594 25.5978C22.8353 25.5978 23.0095 25.5606 23.172 25.4884C23.3344 25.4163 23.4818 25.3105 23.6057 25.1773C23.7307 25.0451 23.8298 24.8879 23.8975 24.7146C23.9652 24.5414 24 24.3556 24 24.1679C24 23.9802 23.9652 23.7944 23.8975 23.6212C23.8298 23.4479 23.7307 23.2907 23.6057 23.1585ZM2.66581 11.3731C2.66581 9.68609 3.13485 8.03693 4.01362 6.6342C4.89239 5.23148 6.14142 4.13819 7.60275 3.49258C9.06409 2.84698 10.6721 2.67806 12.2235 3.00718C13.7748 3.33631 15.1998 4.1487 16.3183 5.34162C17.4367 6.53454 18.1984 8.05441 18.507 9.70904C18.8156 11.3637 18.6572 13.0787 18.0519 14.6374C17.4466 16.196 16.4215 17.5282 15.1064 18.4654C13.7912 19.4027 12.245 19.903 10.6632 19.903C8.54219 19.903 6.50801 19.0043 5.0082 17.4046C3.5084 15.805 2.66581 13.6354 2.66581 11.3731Z" fill="white"/>
</svg>
