<svg width="31" height="26" viewBox="0 0 31 26" fill="none" xmlns="http://www.w3.org/2000/svg">
<path d="M29.2222 1.68085C27.8485 2.37502 26.5022 2.65694 25.101 3.08335C23.561 1.29127 21.2779 1.1921 19.084 2.03927C16.8902 2.88644 15.4532 4.9576 15.4848 7.33335V8.75002C11.0271 8.8676 7.05696 6.77377 4.49494 3.08335C4.49494 3.08335 -1.25003 13.6134 9.98989 18.6667C7.41825 20.4333 4.85349 21.6247 1.74747 21.5C6.29179 24.0543 11.2441 24.9326 15.5315 23.6491C20.4495 22.1758 24.4911 18.3749 26.042 12.6813C26.5047 10.9496 26.7344 9.16065 26.7248 7.36452C26.722 7.01177 28.7991 3.43752 29.2222 1.67944V1.68085Z" stroke="black" stroke-width="2.2" stroke-linecap="round" stroke-linejoin="round"/>
</svg>
