<svg width="32" height="32" viewBox="0 0 32 32" fill="none" xmlns="http://www.w3.org/2000/svg">
<circle cx="18" cy="16" r="12.75" stroke="black" stroke-width="2.5"/>
<path d="M23.8058 11.2971C23.473 10.9341 22.9904 10.7416 22.373 10.7237C20.6309 10.666 19.3975 11.6037 18.71 13.5067C18.6924 13.5555 18.6885 13.6082 18.6986 13.6591C18.7088 13.71 18.7327 13.7572 18.7678 13.7955C18.8019 13.8339 18.8462 13.8621 18.8955 13.8767C18.9449 13.8912 18.9973 13.8917 19.0469 13.878C19.2435 13.823 19.4401 13.7955 19.6299 13.7955C19.8843 13.7955 20.2211 13.8422 20.3903 14.0663C20.5195 14.2396 20.5374 14.4981 20.4425 14.8363C20.3628 15.121 19.9516 15.8827 19.4443 16.6898C18.8255 17.673 18.4818 18.113 18.3855 18.113C18.0583 18.113 16.8771 12.8261 16.8455 12.7092C16.5059 11.4992 16.3368 10.8901 15.2368 10.8901C14.3966 10.8901 12.5253 12.4383 10.988 13.7872L10.7543 13.9935C10.6828 14.0553 10.6376 14.1421 10.6278 14.2361C10.6181 14.3301 10.6447 14.4243 10.702 14.4995L10.988 14.8721C11.0452 14.9478 11.1297 14.998 11.2235 15.0122C11.3173 15.0263 11.4129 15.0032 11.4899 14.9477L11.505 14.9353C12.0028 14.5778 12.4716 14.241 12.8264 14.2231C13.2114 14.2038 13.5455 14.8116 13.9443 16.2581C14.7033 19.0686 15.8555 22.4181 17.0394 22.4181C18.2769 22.4181 19.7523 21.3593 21.6594 18.8513C23.385 16.5826 24.309 14.7827 24.3681 13.4737C24.4135 12.4837 24.2238 11.7522 23.8058 11.2971Z" fill="black"/>
</svg>
